<svg xmlns="http://www.w3.org/2000/svg" version="1.1" xmlns:xlink="http://www.w3.org/1999/xlink" xmlns:svgjs="http://svgjs.dev/svgjs" viewBox="0 0 800 800" opacity="0.14" width="800" height="800"><g stroke-width="0.5" stroke="hsla(0, 0%, 100%, 1.00)" fill="none"><rect width="53.333333333333336" height="53.333333333333336" x="0" y="0"></rect><rect width="53.333333333333336" height="53.333333333333336" x="53.333333333333336" y="0"></rect><rect width="53.333333333333336" height="53.333333333333336" x="106.66666666666667" y="0"></rect><rect width="53.333333333333336" height="53.333333333333336" x="160" y="0"></rect><rect width="53.333333333333336" height="53.333333333333336" x="213.33333333333334" y="0"></rect><rect width="53.333333333333336" height="53.333333333333336" x="266.6666666666667" y="0"></rect><rect width="53.333333333333336" height="53.333333333333336" x="320" y="0"></rect><rect width="53.333333333333336" height="53.333333333333336" x="373.3333333333333" y="0"></rect><rect width="53.333333333333336" height="53.333333333333336" x="426.66666666666663" y="0"></rect><rect width="53.333333333333336" height="53.333333333333336" x="479.99999999999994" y="0"></rect><rect width="53.333333333333336" height="53.333333333333336" x="533.3333333333333" y="0"></rect><rect width="53.333333333333336" height="53.333333333333336" x="586.6666666666666" y="0"></rect><rect width="53.333333333333336" height="53.333333333333336" x="640" y="0"></rect><rect width="53.333333333333336" height="53.333333333333336" x="693.3333333333334" y="0"></rect><rect width="53.333333333333336" height="53.333333333333336" x="746.6666666666667" y="0"></rect><rect width="53.333333333333336" height="53.333333333333336" x="800.0000000000001" y="0"></rect><rect width="53.333333333333336" height="53.333333333333336" x="0" y="53.333333333333336"></rect><rect width="53.333333333333336" height="53.333333333333336" x="53.333333333333336" y="53.333333333333336"></rect><rect width="53.333333333333336" height="53.333333333333336" x="106.66666666666667" y="53.333333333333336"></rect><rect width="53.333333333333336" height="53.333333333333336" x="160" y="53.333333333333336"></rect><rect width="53.333333333333336" height="53.333333333333336" x="213.33333333333334" y="53.333333333333336"></rect><rect width="53.333333333333336" height="53.333333333333336" x="266.6666666666667" y="53.333333333333336"></rect><rect width="53.333333333333336" height="53.333333333333336" x="320" y="53.333333333333336"></rect><rect width="53.333333333333336" height="53.333333333333336" x="373.3333333333333" y="53.333333333333336"></rect><rect width="53.333333333333336" height="53.333333333333336" x="426.66666666666663" y="53.333333333333336"></rect><rect width="53.333333333333336" height="53.333333333333336" x="479.99999999999994" y="53.333333333333336"></rect><rect width="53.333333333333336" height="53.333333333333336" x="533.3333333333333" y="53.333333333333336"></rect><rect width="53.333333333333336" height="53.333333333333336" x="586.6666666666666" y="53.333333333333336"></rect><rect width="53.333333333333336" height="53.333333333333336" x="640" y="53.333333333333336"></rect><rect width="53.333333333333336" height="53.333333333333336" x="693.3333333333334" y="53.333333333333336"></rect><rect width="53.333333333333336" height="53.333333333333336" x="746.6666666666667" y="53.333333333333336"></rect><rect width="53.333333333333336" height="53.333333333333336" x="800.0000000000001" y="53.333333333333336"></rect><rect width="53.333333333333336" height="53.333333333333336" x="0" y="106.66666666666667"></rect><rect width="53.333333333333336" height="53.333333333333336" x="53.333333333333336" y="106.66666666666667"></rect><rect width="53.333333333333336" height="53.333333333333336" x="106.66666666666667" y="106.66666666666667"></rect><rect width="53.333333333333336" height="53.333333333333336" x="160" y="106.66666666666667"></rect><rect width="53.333333333333336" height="53.333333333333336" x="213.33333333333334" y="106.66666666666667"></rect><rect width="53.333333333333336" height="53.333333333333336" x="266.6666666666667" y="106.66666666666667"></rect><rect width="53.333333333333336" height="53.333333333333336" x="320" y="106.66666666666667"></rect><rect width="53.333333333333336" height="53.333333333333336" x="373.3333333333333" y="106.66666666666667"></rect><rect width="53.333333333333336" height="53.333333333333336" x="426.66666666666663" y="106.66666666666667"></rect><rect width="53.333333333333336" height="53.333333333333336" x="479.99999999999994" y="106.66666666666667"></rect><rect width="53.333333333333336" height="53.333333333333336" x="533.3333333333333" y="106.66666666666667"></rect><rect width="53.333333333333336" height="53.333333333333336" x="586.6666666666666" y="106.66666666666667"></rect><rect width="53.333333333333336" height="53.333333333333336" x="640" y="106.66666666666667"></rect><rect width="53.333333333333336" height="53.333333333333336" x="693.3333333333334" y="106.66666666666667"></rect><rect width="53.333333333333336" height="53.333333333333336" x="746.6666666666667" y="106.66666666666667"></rect><rect width="53.333333333333336" height="53.333333333333336" x="800.0000000000001" y="106.66666666666667"></rect><rect width="53.333333333333336" height="53.333333333333336" x="0" y="160"></rect><rect width="53.333333333333336" height="53.333333333333336" x="53.333333333333336" y="160"></rect><rect width="53.333333333333336" height="53.333333333333336" x="106.66666666666667" y="160"></rect><rect width="53.333333333333336" height="53.333333333333336" x="160" y="160"></rect><rect width="53.333333333333336" height="53.333333333333336" x="213.33333333333334" y="160"></rect><rect width="53.333333333333336" height="53.333333333333336" x="266.6666666666667" y="160"></rect><rect width="53.333333333333336" height="53.333333333333336" x="320" y="160"></rect><rect width="53.333333333333336" height="53.333333333333336" x="373.3333333333333" y="160"></rect><rect width="53.333333333333336" height="53.333333333333336" x="426.66666666666663" y="160"></rect><rect width="53.333333333333336" height="53.333333333333336" x="479.99999999999994" y="160"></rect><rect width="53.333333333333336" height="53.333333333333336" x="533.3333333333333" y="160"></rect><rect width="53.333333333333336" height="53.333333333333336" x="586.6666666666666" y="160"></rect><rect width="53.333333333333336" height="53.333333333333336" x="640" y="160"></rect><rect width="53.333333333333336" height="53.333333333333336" x="693.3333333333334" y="160"></rect><rect width="53.333333333333336" height="53.333333333333336" x="746.6666666666667" y="160"></rect><rect width="53.333333333333336" height="53.333333333333336" x="800.0000000000001" y="160"></rect><rect width="53.333333333333336" height="53.333333333333336" x="0" y="213.33333333333334"></rect><rect width="53.333333333333336" height="53.333333333333336" x="53.333333333333336" y="213.33333333333334"></rect><rect width="53.333333333333336" height="53.333333333333336" x="106.66666666666667" y="213.33333333333334"></rect><rect width="53.333333333333336" height="53.333333333333336" x="160" y="213.33333333333334"></rect><rect width="53.333333333333336" height="53.333333333333336" x="213.33333333333334" y="213.33333333333334"></rect><rect width="53.333333333333336" height="53.333333333333336" x="266.6666666666667" y="213.33333333333334"></rect><rect width="53.333333333333336" height="53.333333333333336" x="320" y="213.33333333333334"></rect><rect width="53.333333333333336" height="53.333333333333336" x="373.3333333333333" y="213.33333333333334"></rect><rect width="53.333333333333336" height="53.333333333333336" x="426.66666666666663" y="213.33333333333334"></rect><rect width="53.333333333333336" height="53.333333333333336" x="479.99999999999994" y="213.33333333333334"></rect><rect width="53.333333333333336" height="53.333333333333336" x="533.3333333333333" y="213.33333333333334"></rect><rect width="53.333333333333336" height="53.333333333333336" x="586.6666666666666" y="213.33333333333334"></rect><rect width="53.333333333333336" height="53.333333333333336" x="640" y="213.33333333333334"></rect><rect width="53.333333333333336" height="53.333333333333336" x="693.3333333333334" y="213.33333333333334"></rect><rect width="53.333333333333336" height="53.333333333333336" x="746.6666666666667" y="213.33333333333334"></rect><rect width="53.333333333333336" height="53.333333333333336" x="800.0000000000001" y="213.33333333333334"></rect><rect width="53.333333333333336" height="53.333333333333336" x="0" y="266.6666666666667"></rect><rect width="53.333333333333336" height="53.333333333333336" x="53.333333333333336" y="266.6666666666667"></rect><rect width="53.333333333333336" height="53.333333333333336" x="106.66666666666667" y="266.6666666666667"></rect><rect width="53.333333333333336" height="53.333333333333336" x="160" y="266.6666666666667"></rect><rect width="53.333333333333336" height="53.333333333333336" x="213.33333333333334" y="266.6666666666667"></rect><rect width="53.333333333333336" height="53.333333333333336" x="266.6666666666667" y="266.6666666666667"></rect><rect width="53.333333333333336" height="53.333333333333336" x="320" y="266.6666666666667"></rect><rect width="53.333333333333336" height="53.333333333333336" x="373.3333333333333" y="266.6666666666667"></rect><rect width="53.333333333333336" height="53.333333333333336" x="426.66666666666663" y="266.6666666666667"></rect><rect width="53.333333333333336" height="53.333333333333336" x="479.99999999999994" y="266.6666666666667"></rect><rect width="53.333333333333336" height="53.333333333333336" x="533.3333333333333" y="266.6666666666667"></rect><rect width="53.333333333333336" height="53.333333333333336" x="586.6666666666666" y="266.6666666666667"></rect><rect width="53.333333333333336" height="53.333333333333336" x="640" y="266.6666666666667"></rect><rect width="53.333333333333336" height="53.333333333333336" x="693.3333333333334" y="266.6666666666667"></rect><rect width="53.333333333333336" height="53.333333333333336" x="746.6666666666667" y="266.6666666666667"></rect><rect width="53.333333333333336" height="53.333333333333336" x="800.0000000000001" y="266.6666666666667"></rect><rect width="53.333333333333336" height="53.333333333333336" x="0" y="320"></rect><rect width="53.333333333333336" height="53.333333333333336" x="53.333333333333336" y="320"></rect><rect width="53.333333333333336" height="53.333333333333336" x="106.66666666666667" y="320"></rect><rect width="53.333333333333336" height="53.333333333333336" x="160" y="320"></rect><rect width="53.333333333333336" height="53.333333333333336" x="213.33333333333334" y="320"></rect><rect width="53.333333333333336" height="53.333333333333336" x="266.6666666666667" y="320"></rect><rect width="53.333333333333336" height="53.333333333333336" x="320" y="320"></rect><rect width="53.333333333333336" height="53.333333333333336" x="373.3333333333333" y="320"></rect><rect width="53.333333333333336" height="53.333333333333336" x="426.66666666666663" y="320"></rect><rect width="53.333333333333336" height="53.333333333333336" x="479.99999999999994" y="320"></rect><rect width="53.333333333333336" height="53.333333333333336" x="533.3333333333333" y="320"></rect><rect width="53.333333333333336" height="53.333333333333336" x="586.6666666666666" y="320"></rect><rect width="53.333333333333336" height="53.333333333333336" x="640" y="320"></rect><rect width="53.333333333333336" height="53.333333333333336" x="693.3333333333334" y="320"></rect><rect width="53.333333333333336" height="53.333333333333336" x="746.6666666666667" y="320"></rect><rect width="53.333333333333336" height="53.333333333333336" x="800.0000000000001" y="320"></rect><rect width="53.333333333333336" height="53.333333333333336" x="0" y="373.3333333333333"></rect><rect width="53.333333333333336" height="53.333333333333336" x="53.333333333333336" y="373.3333333333333"></rect><rect width="53.333333333333336" height="53.333333333333336" x="106.66666666666667" y="373.3333333333333"></rect><rect width="53.333333333333336" height="53.333333333333336" x="160" y="373.3333333333333"></rect><rect width="53.333333333333336" height="53.333333333333336" x="213.33333333333334" y="373.3333333333333"></rect><rect width="53.333333333333336" height="53.333333333333336" x="266.6666666666667" y="373.3333333333333"></rect><rect width="53.333333333333336" height="53.333333333333336" x="320" y="373.3333333333333"></rect><rect width="53.333333333333336" height="53.333333333333336" x="373.3333333333333" y="373.3333333333333"></rect><rect width="53.333333333333336" height="53.333333333333336" x="426.66666666666663" y="373.3333333333333"></rect><rect width="53.333333333333336" height="53.333333333333336" x="479.99999999999994" y="373.3333333333333"></rect><rect width="53.333333333333336" height="53.333333333333336" x="533.3333333333333" y="373.3333333333333"></rect><rect width="53.333333333333336" height="53.333333333333336" x="586.6666666666666" y="373.3333333333333"></rect><rect width="53.333333333333336" height="53.333333333333336" x="640" y="373.3333333333333"></rect><rect width="53.333333333333336" height="53.333333333333336" x="693.3333333333334" y="373.3333333333333"></rect><rect width="53.333333333333336" height="53.333333333333336" x="746.6666666666667" y="373.3333333333333"></rect><rect width="53.333333333333336" height="53.333333333333336" x="800.0000000000001" y="373.3333333333333"></rect><rect width="53.333333333333336" height="53.333333333333336" x="0" y="426.66666666666663"></rect><rect width="53.333333333333336" height="53.333333333333336" x="53.333333333333336" y="426.66666666666663"></rect><rect width="53.333333333333336" height="53.333333333333336" x="106.66666666666667" y="426.66666666666663"></rect><rect width="53.333333333333336" height="53.333333333333336" x="160" y="426.66666666666663"></rect><rect width="53.333333333333336" height="53.333333333333336" x="213.33333333333334" y="426.66666666666663"></rect><rect width="53.333333333333336" height="53.333333333333336" x="266.6666666666667" y="426.66666666666663"></rect><rect width="53.333333333333336" height="53.333333333333336" x="320" y="426.66666666666663"></rect><rect width="53.333333333333336" height="53.333333333333336" x="373.3333333333333" y="426.66666666666663"></rect><rect width="53.333333333333336" height="53.333333333333336" x="426.66666666666663" y="426.66666666666663"></rect><rect width="53.333333333333336" height="53.333333333333336" x="479.99999999999994" y="426.66666666666663"></rect><rect width="53.333333333333336" height="53.333333333333336" x="533.3333333333333" y="426.66666666666663"></rect><rect width="53.333333333333336" height="53.333333333333336" x="586.6666666666666" y="426.66666666666663"></rect><rect width="53.333333333333336" height="53.333333333333336" x="640" y="426.66666666666663"></rect><rect width="53.333333333333336" height="53.333333333333336" x="693.3333333333334" y="426.66666666666663"></rect><rect width="53.333333333333336" height="53.333333333333336" x="746.6666666666667" y="426.66666666666663"></rect><rect width="53.333333333333336" height="53.333333333333336" x="800.0000000000001" y="426.66666666666663"></rect><rect width="53.333333333333336" height="53.333333333333336" x="0" y="479.99999999999994"></rect><rect width="53.333333333333336" height="53.333333333333336" x="53.333333333333336" y="479.99999999999994"></rect><rect width="53.333333333333336" height="53.333333333333336" x="106.66666666666667" y="479.99999999999994"></rect><rect width="53.333333333333336" height="53.333333333333336" x="160" y="479.99999999999994"></rect><rect width="53.333333333333336" height="53.333333333333336" x="213.33333333333334" y="479.99999999999994"></rect><rect width="53.333333333333336" height="53.333333333333336" x="266.6666666666667" y="479.99999999999994"></rect><rect width="53.333333333333336" height="53.333333333333336" x="320" y="479.99999999999994"></rect><rect width="53.333333333333336" height="53.333333333333336" x="373.3333333333333" y="479.99999999999994"></rect><rect width="53.333333333333336" height="53.333333333333336" x="426.66666666666663" y="479.99999999999994"></rect><rect width="53.333333333333336" height="53.333333333333336" x="479.99999999999994" y="479.99999999999994"></rect><rect width="53.333333333333336" height="53.333333333333336" x="533.3333333333333" y="479.99999999999994"></rect><rect width="53.333333333333336" height="53.333333333333336" x="586.6666666666666" y="479.99999999999994"></rect><rect width="53.333333333333336" height="53.333333333333336" x="640" y="479.99999999999994"></rect><rect width="53.333333333333336" height="53.333333333333336" x="693.3333333333334" y="479.99999999999994"></rect><rect width="53.333333333333336" height="53.333333333333336" x="746.6666666666667" y="479.99999999999994"></rect><rect width="53.333333333333336" height="53.333333333333336" x="800.0000000000001" y="479.99999999999994"></rect><rect width="53.333333333333336" height="53.333333333333336" x="0" y="533.3333333333333"></rect><rect width="53.333333333333336" height="53.333333333333336" x="53.333333333333336" y="533.3333333333333"></rect><rect width="53.333333333333336" height="53.333333333333336" x="106.66666666666667" y="533.3333333333333"></rect><rect width="53.333333333333336" height="53.333333333333336" x="160" y="533.3333333333333"></rect><rect width="53.333333333333336" height="53.333333333333336" x="213.33333333333334" y="533.3333333333333"></rect><rect width="53.333333333333336" height="53.333333333333336" x="266.6666666666667" y="533.3333333333333"></rect><rect width="53.333333333333336" height="53.333333333333336" x="320" y="533.3333333333333"></rect><rect width="53.333333333333336" height="53.333333333333336" x="373.3333333333333" y="533.3333333333333"></rect><rect width="53.333333333333336" height="53.333333333333336" x="426.66666666666663" y="533.3333333333333"></rect><rect width="53.333333333333336" height="53.333333333333336" x="479.99999999999994" y="533.3333333333333"></rect><rect width="53.333333333333336" height="53.333333333333336" x="533.3333333333333" y="533.3333333333333"></rect><rect width="53.333333333333336" height="53.333333333333336" x="586.6666666666666" y="533.3333333333333"></rect><rect width="53.333333333333336" height="53.333333333333336" x="640" y="533.3333333333333"></rect><rect width="53.333333333333336" height="53.333333333333336" x="693.3333333333334" y="533.3333333333333"></rect><rect width="53.333333333333336" height="53.333333333333336" x="746.6666666666667" y="533.3333333333333"></rect><rect width="53.333333333333336" height="53.333333333333336" x="800.0000000000001" y="533.3333333333333"></rect><rect width="53.333333333333336" height="53.333333333333336" x="0" y="586.6666666666666"></rect><rect width="53.333333333333336" height="53.333333333333336" x="53.333333333333336" y="586.6666666666666"></rect><rect width="53.333333333333336" height="53.333333333333336" x="106.66666666666667" y="586.6666666666666"></rect><rect width="53.333333333333336" height="53.333333333333336" x="160" y="586.6666666666666"></rect><rect width="53.333333333333336" height="53.333333333333336" x="213.33333333333334" y="586.6666666666666"></rect><rect width="53.333333333333336" height="53.333333333333336" x="266.6666666666667" y="586.6666666666666"></rect><rect width="53.333333333333336" height="53.333333333333336" x="320" y="586.6666666666666"></rect><rect width="53.333333333333336" height="53.333333333333336" x="373.3333333333333" y="586.6666666666666"></rect><rect width="53.333333333333336" height="53.333333333333336" x="426.66666666666663" y="586.6666666666666"></rect><rect width="53.333333333333336" height="53.333333333333336" x="479.99999999999994" y="586.6666666666666"></rect><rect width="53.333333333333336" height="53.333333333333336" x="533.3333333333333" y="586.6666666666666"></rect><rect width="53.333333333333336" height="53.333333333333336" x="586.6666666666666" y="586.6666666666666"></rect><rect width="53.333333333333336" height="53.333333333333336" x="640" y="586.6666666666666"></rect><rect width="53.333333333333336" height="53.333333333333336" x="693.3333333333334" y="586.6666666666666"></rect><rect width="53.333333333333336" height="53.333333333333336" x="746.6666666666667" y="586.6666666666666"></rect><rect width="53.333333333333336" height="53.333333333333336" x="800.0000000000001" y="586.6666666666666"></rect><rect width="53.333333333333336" height="53.333333333333336" x="0" y="640"></rect><rect width="53.333333333333336" height="53.333333333333336" x="53.333333333333336" y="640"></rect><rect width="53.333333333333336" height="53.333333333333336" x="106.66666666666667" y="640"></rect><rect width="53.333333333333336" height="53.333333333333336" x="160" y="640"></rect><rect width="53.333333333333336" height="53.333333333333336" x="213.33333333333334" y="640"></rect><rect width="53.333333333333336" height="53.333333333333336" x="266.6666666666667" y="640"></rect><rect width="53.333333333333336" height="53.333333333333336" x="320" y="640"></rect><rect width="53.333333333333336" height="53.333333333333336" x="373.3333333333333" y="640"></rect><rect width="53.333333333333336" height="53.333333333333336" x="426.66666666666663" y="640"></rect><rect width="53.333333333333336" height="53.333333333333336" x="479.99999999999994" y="640"></rect><rect width="53.333333333333336" height="53.333333333333336" x="533.3333333333333" y="640"></rect><rect width="53.333333333333336" height="53.333333333333336" x="586.6666666666666" y="640"></rect><rect width="53.333333333333336" height="53.333333333333336" x="640" y="640"></rect><rect width="53.333333333333336" height="53.333333333333336" x="693.3333333333334" y="640"></rect><rect width="53.333333333333336" height="53.333333333333336" x="746.6666666666667" y="640"></rect><rect width="53.333333333333336" height="53.333333333333336" x="800.0000000000001" y="640"></rect><rect width="53.333333333333336" height="53.333333333333336" x="0" y="693.3333333333334"></rect><rect width="53.333333333333336" height="53.333333333333336" x="53.333333333333336" y="693.3333333333334"></rect><rect width="53.333333333333336" height="53.333333333333336" x="106.66666666666667" y="693.3333333333334"></rect><rect width="53.333333333333336" height="53.333333333333336" x="160" y="693.3333333333334"></rect><rect width="53.333333333333336" height="53.333333333333336" x="213.33333333333334" y="693.3333333333334"></rect><rect width="53.333333333333336" height="53.333333333333336" x="266.6666666666667" y="693.3333333333334"></rect><rect width="53.333333333333336" height="53.333333333333336" x="320" y="693.3333333333334"></rect><rect width="53.333333333333336" height="53.333333333333336" x="373.3333333333333" y="693.3333333333334"></rect><rect width="53.333333333333336" height="53.333333333333336" x="426.66666666666663" y="693.3333333333334"></rect><rect width="53.333333333333336" height="53.333333333333336" x="479.99999999999994" y="693.3333333333334"></rect><rect width="53.333333333333336" height="53.333333333333336" x="533.3333333333333" y="693.3333333333334"></rect><rect width="53.333333333333336" height="53.333333333333336" x="586.6666666666666" y="693.3333333333334"></rect><rect width="53.333333333333336" height="53.333333333333336" x="640" y="693.3333333333334"></rect><rect width="53.333333333333336" height="53.333333333333336" x="693.3333333333334" y="693.3333333333334"></rect><rect width="53.333333333333336" height="53.333333333333336" x="746.6666666666667" y="693.3333333333334"></rect><rect width="53.333333333333336" height="53.333333333333336" x="800.0000000000001" y="693.3333333333334"></rect><rect width="53.333333333333336" height="53.333333333333336" x="0" y="746.6666666666667"></rect><rect width="53.333333333333336" height="53.333333333333336" x="53.333333333333336" y="746.6666666666667"></rect><rect width="53.333333333333336" height="53.333333333333336" x="106.66666666666667" y="746.6666666666667"></rect><rect width="53.333333333333336" height="53.333333333333336" x="160" y="746.6666666666667"></rect><rect width="53.333333333333336" height="53.333333333333336" x="213.33333333333334" y="746.6666666666667"></rect><rect width="53.333333333333336" height="53.333333333333336" x="266.6666666666667" y="746.6666666666667"></rect><rect width="53.333333333333336" height="53.333333333333336" x="320" y="746.6666666666667"></rect><rect width="53.333333333333336" height="53.333333333333336" x="373.3333333333333" y="746.6666666666667"></rect><rect width="53.333333333333336" height="53.333333333333336" x="426.66666666666663" y="746.6666666666667"></rect><rect width="53.333333333333336" height="53.333333333333336" x="479.99999999999994" y="746.6666666666667"></rect><rect width="53.333333333333336" height="53.333333333333336" x="533.3333333333333" y="746.6666666666667"></rect><rect width="53.333333333333336" height="53.333333333333336" x="586.6666666666666" y="746.6666666666667"></rect><rect width="53.333333333333336" height="53.333333333333336" x="640" y="746.6666666666667"></rect><rect width="53.333333333333336" height="53.333333333333336" x="693.3333333333334" y="746.6666666666667"></rect><rect width="53.333333333333336" height="53.333333333333336" x="746.6666666666667" y="746.6666666666667"></rect><rect width="53.333333333333336" height="53.333333333333336" x="800.0000000000001" y="746.6666666666667"></rect><rect width="53.333333333333336" height="53.333333333333336" x="0" y="800.0000000000001"></rect><rect width="53.333333333333336" height="53.333333333333336" x="53.333333333333336" y="800.0000000000001"></rect><rect width="53.333333333333336" height="53.333333333333336" x="106.66666666666667" y="800.0000000000001"></rect><rect width="53.333333333333336" height="53.333333333333336" x="160" y="800.0000000000001"></rect><rect width="53.333333333333336" height="53.333333333333336" x="213.33333333333334" y="800.0000000000001"></rect><rect width="53.333333333333336" height="53.333333333333336" x="266.6666666666667" y="800.0000000000001"></rect><rect width="53.333333333333336" height="53.333333333333336" x="320" y="800.0000000000001"></rect><rect width="53.333333333333336" height="53.333333333333336" x="373.3333333333333" y="800.0000000000001"></rect><rect width="53.333333333333336" height="53.333333333333336" x="426.66666666666663" y="800.0000000000001"></rect><rect width="53.333333333333336" height="53.333333333333336" x="479.99999999999994" y="800.0000000000001"></rect><rect width="53.333333333333336" height="53.333333333333336" x="533.3333333333333" y="800.0000000000001"></rect><rect width="53.333333333333336" height="53.333333333333336" x="586.6666666666666" y="800.0000000000001"></rect><rect width="53.333333333333336" height="53.333333333333336" x="640" y="800.0000000000001"></rect><rect width="53.333333333333336" height="53.333333333333336" x="693.3333333333334" y="800.0000000000001"></rect><rect width="53.333333333333336" height="53.333333333333336" x="746.6666666666667" y="800.0000000000001"></rect><rect width="53.333333333333336" height="53.333333333333336" x="800.0000000000001" y="800.0000000000001"></rect></g></svg>